<svg width="73" height="73" viewBox="0 0 73 73" fill="none" xmlns="http://www.w3.org/2000/svg">
<path d="M19.5189 5.70319C18.9201 6.01686 18.1787 6.8153 17.8508 7.49968C17.6227 7.98444 17.3518 8.11276 17.1664 7.82761C16.9811 7.52819 15.0563 6.70124 14.5287 6.70124C13.8158 6.70124 12.9033 7.41413 12.4186 8.34089C12.2189 8.72585 12.0336 9.08229 12.0193 9.11081C12.0051 9.13933 11.6486 9.02526 11.2352 8.83991C10.7504 8.62604 10.0803 8.49772 9.32461 8.44069C8.18398 8.3694 8.14121 8.38366 7.78477 8.75436C7.32852 9.25339 6.98633 10.2514 6.88652 11.4063L6.81523 12.3331H5.36094C4.16328 12.3331 3.82109 12.3901 3.2793 12.6467C2.43809 13.0602 1.42578 14.0583 1.42578 14.4717C1.42578 15.0563 2.13867 17.0239 2.97988 18.7491C4.06348 20.9448 5.28965 22.67 6.98633 24.3809C8.64023 26.0348 10.3084 27.2325 12.5326 28.3589C15.0277 29.6278 15.7406 30.526 15.7406 32.3653C15.7406 33.7341 15.3699 34.4184 13.7303 36.0866C10.6791 39.1948 8.82559 42.6737 7.98438 46.8512C7.61367 48.6192 7.44258 51.8557 7.68496 52.2977C7.77051 52.4688 8.18398 52.7825 8.59746 52.9964C9.23906 53.3385 9.50996 53.3956 10.5508 53.3956C11.5773 53.3956 11.891 53.3385 12.5896 53.0106C13.3311 52.6542 13.4166 52.6399 13.5021 52.868C13.9727 54.2653 14.7711 55.4915 15.4412 55.8337C15.8119 56.0333 15.926 56.0333 16.5818 55.8194C17.4516 55.5342 18.307 55.0495 18.8631 54.5362L19.2623 54.1512L19.8469 54.7501C20.5455 55.4487 21.016 55.7053 21.7859 55.8337C22.2707 55.905 22.4561 55.8622 22.9979 55.4915C23.34 55.2491 23.9246 54.7216 24.2953 54.3081L24.9512 53.5809L25.607 54.1798C25.9635 54.5077 26.4625 54.8641 26.7191 54.9639C27.1754 55.1635 27.1896 55.1921 27.2752 56.2186C27.3893 57.5303 27.76 58.5569 28.2305 58.9133C28.701 59.2555 29.9699 59.5977 30.8396 59.5977H31.5098V60.6385C31.5098 61.7507 31.8092 62.877 32.1799 63.1907C32.5791 63.5186 34.0477 63.4046 34.9316 62.9768C35.3594 62.7772 35.7158 62.6204 35.7301 62.6346C35.7443 62.6489 35.9439 63.0766 36.1863 63.5899C36.4287 64.1032 36.8564 64.7591 37.1416 65.0727C37.6549 65.6145 37.6691 65.6145 38.5531 65.5575C39.1662 65.529 39.6938 65.3864 40.1785 65.1298L40.8914 64.7591L41.4189 65.529C41.9322 66.2704 42.802 67.0831 43.4578 67.4253C44.1137 67.7674 45.682 66.8549 46.5375 65.6145L46.9367 65.0157L47.5783 65.586C48.6762 66.5413 49.3463 66.7979 50.8576 66.7979C51.984 66.7979 52.2121 66.7551 52.4688 66.5128C52.9107 66.0565 53.0818 64.2743 52.9963 60.9522C52.925 57.9296 52.6684 56.0618 51.9555 53.2815C51.2854 50.6296 51.6418 48.9614 53.1816 47.5784C54.0371 46.8085 55.192 46.338 56.2186 46.338C56.632 46.338 57.6729 46.4663 58.5426 46.6231C62.1926 47.2505 66.4699 47.3503 69.3643 46.837C71.1037 46.5376 71.2178 46.4092 71.2178 44.7981C71.2035 43.3296 70.8898 42.5311 69.9061 41.5188L69.3072 40.8772L70.1342 40.0645C70.9469 39.2661 71.5742 38.2395 71.5742 37.6835C71.5742 37.5266 71.3746 37.1274 71.1465 36.7995C70.6902 36.1721 69.1076 34.9317 68.7654 34.9317C68.6514 34.9317 68.5801 34.8889 68.6086 34.8176C69.1789 33.7198 69.3215 33.2635 69.3072 32.4794C69.3072 31.7807 69.2502 31.5526 68.9936 31.2817C68.5658 30.8255 67.525 30.2266 66.7979 29.9985C66.4842 29.913 66.2418 29.7704 66.2561 29.7133C66.2846 29.6421 66.4272 29.2286 66.584 28.8008C67.3967 26.5196 66.6268 25.5643 64.1174 25.6926L62.9197 25.7497L62.8912 25.0083C62.8912 24.6091 62.7344 23.8676 62.5633 23.3686C62.1498 22.228 61.665 21.9001 60.3818 21.8858C59.9113 21.8858 59.3268 21.9428 59.0844 21.9999C58.6566 22.1139 58.6424 22.0854 58.5568 21.6292C58.457 20.9591 57.8439 19.7186 57.3164 19.0628C56.9314 18.6208 56.7746 18.5352 56.3041 18.5352C55.6055 18.5352 54.5646 18.9344 53.7092 19.5048C53.3527 19.7614 53.0248 19.961 52.982 19.961C52.9393 19.961 52.7682 19.7044 52.6113 19.3907C51.9697 18.1217 50.5012 17.1094 49.0469 16.8956C48.2342 16.7815 47.892 17.0239 47.008 18.3641C45.4539 20.7024 44.1422 24.053 43.6859 26.7905C43.3723 28.7723 43.4721 32.6932 43.8998 34.561C44.0709 35.2739 44.1992 36.1008 44.1992 36.4145C44.185 37.5551 43.5291 38.7956 42.6023 39.4372L42.0748 39.8079L40.9627 38.8526C38.71 36.9135 35.7871 35.1598 31.4813 33.1637C30.4404 32.679 29.585 31.8235 29.1145 30.8255C28.7865 30.1411 28.7295 29.8132 28.7295 28.8008C28.7295 26.9473 28.9291 26.6337 31.852 23.7536C34.9887 20.6596 36.9563 18.1645 38.2252 15.6551C38.7955 14.5145 38.767 14.1866 38.0113 13.4594C37.0703 12.5755 36.0295 12.219 34.4896 12.2903L33.2635 12.3473L33.1779 11.278C33.0924 10.1374 32.8785 9.43874 32.3652 8.79714C32.0943 8.45495 31.966 8.41218 31.1533 8.41218C30.3834 8.41218 29.2428 8.66882 28.3588 9.03952C28.1734 9.12507 28.0451 8.98249 27.8027 8.49772C27.3607 7.55671 26.3342 6.70124 25.6783 6.70124C25.108 6.7155 23.782 7.21452 23.1404 7.67077L22.7127 7.97018L22.1139 7.05768C21.7289 6.45886 21.3012 6.00261 20.902 5.77448C20.1891 5.34675 20.1748 5.34675 19.5189 5.70319ZM20.7023 7.98444C20.902 8.31237 21.1871 8.98249 21.3297 9.49577C21.6861 10.8075 22.3848 11.2352 22.9123 10.4653C23.5396 9.5528 24.1527 8.99675 24.8229 8.69733L25.55 8.39792L25.8922 8.71159C26.2629 9.05378 26.5908 9.96628 26.7334 11.0214C26.8047 11.5204 26.9188 11.7628 27.1611 11.9196C27.6316 12.2333 28.0023 12.0764 28.4729 11.3635C29.0004 10.5936 29.6277 10.2372 30.5402 10.2087C31.4527 10.1944 31.4813 10.2514 31.4955 12.4614C31.5098 14.5858 31.8234 14.8995 33.235 14.2579C34.0904 13.8729 35.4592 13.8729 36.2148 14.2579C36.5285 14.4147 36.7852 14.6001 36.7852 14.6714C36.7852 14.8995 35.3879 17.0952 34.3613 18.4782C33.7482 19.3051 32.2084 20.9876 30.6543 22.5274C29.0717 24.0815 27.8598 25.4075 27.6744 25.7639C26.6906 27.703 26.7334 30.0698 27.7742 31.9946C28.3018 32.9641 29.4709 34.1048 30.3834 34.5467C30.8111 34.7464 31.852 35.2311 32.6932 35.6303C33.5486 36.0296 34.8604 36.7139 35.616 37.1702C37.2129 38.1112 40.0359 40.2071 40.8201 41.0198L41.3619 41.5758L41.0482 41.9751C40.4779 42.688 39.708 42.9731 38.2252 42.9874C37.0988 43.0016 36.8707 43.0444 36.6996 43.2725C36.4287 43.629 36.443 43.6575 36.9277 45.0548C37.1701 45.7249 37.3555 46.5661 37.3555 46.9368C37.3555 47.5926 37.3412 47.6069 36.8422 47.7067C35.8727 47.8921 34.9602 47.7067 34.4469 47.2077C33.9479 46.7229 33.3775 46.6374 33.0211 46.9938C32.8357 47.1792 32.8072 47.4501 32.8785 48.605C32.9783 50.1305 32.7645 50.9005 32.2227 50.9005C31.3957 50.9005 30.4547 50.5583 29.8559 50.0307C29.1287 49.4034 28.7865 49.3464 28.373 49.7598C28.1307 50.0022 28.0879 50.2446 28.0736 51.2141C28.0736 52.4403 27.8598 53.3385 27.5604 53.4241C27.3322 53.5096 26.0348 52.2977 25.493 51.4993C25.1508 51.0003 25.0082 50.9005 24.609 50.9005C24.0529 50.9005 23.8533 51.1001 23.725 51.7702C23.5824 52.5116 23.3258 52.9251 22.5986 53.5952C21.9428 54.194 21.9428 54.194 21.5578 53.9659C21.0445 53.638 20.7451 53.253 20.3031 52.3975C19.8184 51.485 19.5617 51.1856 19.2053 51.1856C18.8203 51.1856 18.3926 51.5848 18.3926 51.9413C18.3926 52.4688 17.9506 53.1104 17.2947 53.5667C16.1541 54.3081 16.04 54.3081 15.6123 53.4669C15.3984 53.0534 15.1133 52.2407 14.9564 51.6419C14.5572 50.0735 14.1438 49.8454 13.1742 50.6296C12.1904 51.428 11.1924 51.7987 10.3227 51.7132C9.90918 51.6704 9.4957 51.5991 9.41016 51.5421C9.03945 51.3139 9.42441 47.721 10.0518 45.5538C11.0498 42.1319 12.7322 39.3659 15.4697 36.7139C16.6531 35.5733 17.1664 34.6751 17.4088 33.3063C17.5514 32.5792 17.5514 32.1514 17.423 31.4813C17.0381 29.3997 15.9973 28.1878 13.6162 26.9901C11.3064 25.8352 9.79512 24.7659 8.26953 23.2403C6.20215 21.1729 4.59102 18.6208 3.63574 15.9403C3.19375 14.6999 3.22227 14.6001 4.04922 14.2008C4.71934 13.8872 5.97402 13.9157 6.87227 14.2579C7.75625 14.6001 7.98438 14.6143 8.32656 14.3577C8.55469 14.1866 8.59746 13.93 8.62598 12.3901C8.65449 10.1374 8.68301 10.0661 9.56699 10.1659C10.565 10.2942 11.3492 10.7362 11.6771 11.3921C11.8482 11.7057 12.1049 11.9766 12.2902 12.0194C12.7037 12.1335 13.2313 11.7913 13.3168 11.3635C13.6162 9.80944 13.7445 9.36745 14.0297 8.95397C14.2863 8.58327 14.4432 8.48347 14.7568 8.51198C15.4127 8.56901 16.4107 9.26765 16.8242 9.98054C17.4943 11.1212 18.307 11.0641 18.692 9.85222C18.9059 9.16784 19.5047 7.97018 19.7898 7.65651C20.1178 7.28581 20.2889 7.3571 20.7023 7.98444ZM50.0592 19.0913C50.8148 19.5618 51.2141 20.1464 51.5277 21.2299C51.8129 22.1995 51.9697 22.3848 52.5115 22.3848C52.8395 22.3848 53.1104 22.228 53.5381 21.8288C54.1369 21.2442 55.6768 20.2462 55.9762 20.2462C56.076 20.2462 56.3326 20.6026 56.5322 21.0303C56.9314 21.8288 56.9457 22.1567 56.6748 23.6966C56.5893 24.1528 56.6178 24.2383 56.96 24.4665C57.3307 24.7089 57.3592 24.7089 58.3857 24.1671C58.9561 23.8819 59.726 23.5967 60.0824 23.5682C60.724 23.4827 60.7383 23.4969 60.9664 24.0245C61.2658 24.7659 61.2658 25.9778 60.9521 26.6622C60.7098 27.1897 60.7098 27.2467 60.9379 27.6032C61.223 28.0167 61.5652 28.0167 63.0195 27.6032C63.4473 27.4749 64.1031 27.3751 64.4738 27.3751C65.0299 27.3751 65.1582 27.4178 65.1582 27.6174C65.1439 28.0024 64.6449 29.0432 64.0889 29.7989C63.5186 30.5688 63.4615 30.9538 63.8607 31.353C64.0889 31.5811 64.2742 31.6096 65.0727 31.5526C65.8854 31.4813 66.0992 31.5241 66.7979 31.852C67.5107 32.2085 67.582 32.294 67.582 32.7075C67.582 33.2208 66.9975 34.2188 66.3131 34.8462C65.8141 35.3309 65.7285 35.9155 66.1135 36.2862C66.2988 36.4716 66.4984 36.5143 67.026 36.443C67.3967 36.386 67.8672 36.4145 68.0953 36.5001C68.6086 36.6997 69.7207 37.6122 69.7207 37.826C69.7207 38.1682 68.8652 39.038 67.8672 39.7081C66.3844 40.7346 66.3701 41.1481 67.7959 42.0321C68.851 42.7022 69.4355 43.4864 69.5354 44.3989C69.6209 45.126 69.6779 45.1118 67.4395 45.3399C64.8303 45.6108 61.993 45.4682 58.7137 44.9122C56.6463 44.5557 55.577 44.5557 54.4791 44.8979C53.2814 45.2686 52.5258 45.7534 51.6418 46.6801C49.8881 48.5194 49.5316 50.4442 50.3158 53.7092C50.5582 54.7216 50.8576 56.1616 50.9717 56.903C51.2283 58.3858 51.4279 63.4616 51.2711 64.5167L51.157 65.1868L50.4584 65.1298C49.5316 65.0299 48.7189 64.4739 47.9918 63.4046C47.4928 62.6917 47.3645 62.5919 46.951 62.5919C46.5232 62.5919 46.4234 62.6917 45.6963 63.7895C45.2686 64.4596 44.7125 65.1583 44.4701 65.3579L44.0281 65.7286L43.6432 65.4577C43.4293 65.3008 43.0729 64.9016 42.8447 64.5737C42.5025 64.0889 42.4313 63.8323 42.417 63.1337C42.417 62.4635 42.36 62.2354 42.1461 62.0786C41.6756 61.7364 41.3477 61.8505 40.6633 62.5776C39.9219 63.3618 39.152 63.8751 38.6957 63.8751C38.0398 63.8751 37.4553 62.7344 37.4268 61.4227C37.4125 60.7098 37.327 60.3819 37.1416 60.168C36.7709 59.7546 36.4715 59.8116 35.7016 60.4532C34.9887 61.0378 34.0904 61.5368 33.5771 61.6223C33.3205 61.6651 33.292 61.5796 33.2492 60.9094C33.2207 60.496 33.3063 59.7688 33.4203 59.2983C33.7055 58.2005 33.7055 57.901 33.4061 57.5731C33.1066 57.2452 32.7787 57.2452 32.1229 57.6016C31.5383 57.9153 30.5973 57.9723 29.7703 57.7442C29.2855 57.6016 29.2428 57.5446 29.0859 56.8032C28.8863 55.8479 28.9861 55.0495 29.4566 53.6522C29.642 53.0962 29.7988 52.5401 29.7988 52.4118C29.7988 52.2835 29.8131 52.1837 29.8416 52.1837C29.8559 52.1837 30.3264 52.2835 30.8682 52.3975C32.3795 52.7112 32.9783 52.6827 33.5059 52.2407C34.0762 51.7559 34.5039 50.9147 34.6037 50.0735L34.675 49.3891L35.6445 49.4462C36.8564 49.5175 38.1111 49.2608 38.6102 48.8331C38.9523 48.5337 38.9951 48.3911 39.0379 47.3788C39.0664 46.7372 38.9951 45.953 38.8811 45.5253L38.6814 44.7981L39.5512 44.627C40.535 44.4417 41.2336 44.1137 41.918 43.5292C42.5168 43.0301 43.2012 41.9608 43.2012 41.5331C43.2012 41.305 43.4721 40.9342 44.0566 40.4067C45.7391 38.8383 46.2238 36.9991 45.6393 34.4184C44.4986 29.3854 45.3826 24.1813 48.0916 19.8469C48.9328 18.5067 49.0754 18.4639 50.0592 19.0913Z" fill="black"/>
<path d="M26.263 20.8877C25.7782 21.2299 24.7089 22.8125 24.1671 23.9959C22.1852 28.3017 22.9266 33.1922 26.263 37.6691C27.4606 39.266 27.8171 39.5084 28.3589 39.0949C28.972 38.6529 28.9007 38.2537 28.0167 37.1559C24.0958 32.2654 23.7108 26.8332 27.0044 22.6129C27.3608 22.1424 27.6602 21.6576 27.6602 21.5293C27.6602 21.2441 27.0757 20.6738 26.7905 20.6738C26.6764 20.6738 26.4483 20.7736 26.263 20.8877Z" fill="black"/>
<path d="M13.7731 22.5132C13.2884 23.055 13.5165 23.5255 14.6143 24.2526C16.0544 25.2079 17.5514 26.8618 18.2501 28.2876C19.0913 29.9843 19.3052 30.9823 19.3052 33.0782C19.3194 34.9603 19.1055 36.1864 18.4497 38.097C18.2643 38.6673 18.1075 39.2661 18.1075 39.4372C18.1075 40.1786 19.1911 40.5065 19.5903 39.8792C19.847 39.4657 20.4315 37.5837 20.7595 36.1437C21.0874 34.6038 21.1016 31.5241 20.7737 30.1839C20.0038 27.0614 17.8794 24.1386 15.3415 22.67C14.4575 22.171 14.1153 22.1425 13.7731 22.5132Z" fill="black"/>
<path d="M48.6903 31.8521C48.4337 32.0375 48.4052 32.2514 48.3909 34.0906C48.3767 36.4432 48.2056 37.2416 47.3359 39.0238C46.2665 41.191 44.028 43.1871 41.2763 44.4133C40.0073 44.9836 39.7792 45.2402 39.9931 45.8961C40.0786 46.1955 40.5349 46.4236 40.9626 46.3523C41.4046 46.2953 42.8161 45.6109 44.0566 44.8695C45.6677 43.9 47.7493 41.8183 48.5763 40.3498C49.7454 38.2539 50.2872 35.9584 50.1446 33.6486C50.0591 32.4225 50.0163 32.2656 49.6884 31.9662C49.2607 31.5955 49.0611 31.5812 48.6903 31.8521Z" fill="black"/>
<path d="M55.1064 40.649C50.0021 41.6043 46.3664 45.3683 44.8408 51.3138C44.4273 52.9107 44.5271 53.3669 45.2828 53.4382C45.9101 53.4953 46.124 53.2244 46.4092 52.0125C47.564 47.1648 50.3158 43.857 54.251 42.6308C54.9211 42.4169 55.7908 42.2886 56.8601 42.2459C58.2859 42.1746 58.4998 42.1318 58.6709 41.8609C58.956 41.4617 58.9418 41.1195 58.5996 40.7773C58.3572 40.5349 58.1433 40.4921 57.074 40.5064C56.3754 40.5207 55.5057 40.5777 55.1064 40.649Z" fill="black"/>
</svg>
