<svg width="55" height="60" viewBox="0 0 55 60" fill="none" xmlns="http://www.w3.org/2000/svg">
<path d="M6.80052 17.7583C6.80052 17.7583 13.4424 19.5121 17.8425 19.9739C22.8056 20.4949 24.1241 20.5654 29.0759 19.9739C32.1676 19.6047 36.9678 18.9308 39.2344 19.9739C40.8407 20.7132 40.9389 21.4542 41.4428 22.9281C42.0876 24.814 39.9263 26.99 38.6013 27.7286C37.2762 28.4671 28.1925 29.2056 28.1925 29.2056C28.1925 29.2056 18.9173 29.2056 15.8256 28.8364C12.7649 28.4708 9.45062 28.0978 6.80052 26.99C4.15041 25.8822 2.79411 24.6354 1.69185 22.9281C0.13519 20.5169 1.69184 16.6505 1.69184 16.6505C1.69184 16.6505 2.55209 14.6678 3.45856 13.6964C5.13607 11.8986 13.6171 12.5886 13.6171 12.5886" stroke="black" stroke-width="2" stroke-linecap="round"/>
<path d="M10.7016 12.399C10.7016 12.399 10.5608 8.03225 12.465 6.66976C13.6195 5.84371 15.5474 6.04224 16.8714 5.5299C18.9649 4.71982 19.5167 4.20787 20.8416 2.70333C21.9209 1.47778 23.9254 0.682113 25.6889 1.12285C27.4523 1.56359 28.2871 2.02146 29.659 3.58476C30.9793 5.08918 31.8313 5.87664 33.6269 6.66976C35.2329 7.37914 36.6747 6.44209 38.0356 7.55118C39.3498 8.6223 38.6787 10.2452 39.7991 11.5176C40.8723 12.7364 42.5806 12.2786 43.326 13.7212C43.7289 14.5009 43.8809 15.0546 43.7669 15.9247C43.4556 18.3017 38.4741 19.51 38.4741 19.51M49.055 16.8657C49.055 16.8657 49.9292 25.9361 47.2916 27.4428C44.6539 28.9495 41.1194 28.3243 36.2698 28.3243" stroke="black" stroke-width="2" stroke-linecap="round"/>
<path d="M40.6785 12.0178C40.6785 12.0178 45.0872 12.3652 46.1374 12.73C47.4629 13.1904 48.1733 13.7807 48.6142 14.6621C48.8175 15.0686 49.0915 16.4249 48.412 17.7471C47.7324 19.0692 45.7112 19.5099 44.6463 19.5099C43.5815 19.5099 40.6785 19.5099 38.4741 19.5099" stroke="black" stroke-width="2" stroke-linecap="round"/>
<path d="M21.7942 8.12061H21.6704" stroke="black" stroke-width="2" stroke-linecap="round"/>
<path d="M17.8769 9.81421H17.7532" stroke="black" stroke-width="2" stroke-linecap="round"/>
<path d="M24.9309 11.5771H24.8071" stroke="black" stroke-width="2" stroke-linecap="round"/>
<path d="M20.5222 12.4585H20.3984" stroke="black" stroke-width="2" stroke-linecap="round"/>
<path d="M16.1135 14.2214H15.9897" stroke="black" stroke-width="2" stroke-linecap="round"/>
<path d="M1.44067 23.0356C1.44067 23.7408 1.44067 33.319 1.44067 38.0199C1.44067 42.7209 12.4625 45.0713 12.4625 45.0713" stroke="black" stroke-width="2" stroke-linecap="round"/>
<path d="M48.1733 27.0022C48.1733 27.0022 49.055 44.19 48.1733 45.9529C47.2916 47.7157 45.5281 49.0379 45.5281 49.0379" stroke="black" stroke-width="2" stroke-linecap="round"/>
<path d="M4.52693 42.427C4.52693 42.427 2.76351 46.3934 1.44081 50.3599C1.04442 51.5485 0.73304 55.055 1.44083 56.0891C3.28805 58.788 6.11291 57.1883 9.37654 57.4113C14.969 57.7934 20.1105 58.1818 25.6888 58.7334C32.0282 59.3603 33.8825 56.9711 40.2375 57.4113C43.519 57.6386 44.0028 58.7975 47.2915 58.7334C50.0671 58.6794 51.8755 59.9384 53.0228 57.4113C54.0416 55.1673 53.549 54.1455 52.1411 52.1227C50.4013 49.6233 47.2915 47.7156 47.2915 47.7156" stroke="black" stroke-width="2" stroke-linecap="round"/>
</svg>
