<svg width="80" height="74" viewBox="0 0 80 74" fill="none" xmlns="http://www.w3.org/2000/svg">
<path d="M57.1076 14.1004C58.2507 18.3584 57.3049 21.7693 54.3913 25.0592C51.5851 28.2279 48.5062 29.8251 44.3622 29.0634C40.4873 28.3513 38.4051 26.0774 36.6313 22.5303C34.8576 18.9831 34.7317 14.1004 36.6313 10.9392C39.1098 6.81469 42.9665 5.02608 47.7052 5.67046C52.5739 6.33252 55.8235 9.31737 57.1076 14.1004Z" stroke="black" stroke-width="2" stroke-linecap="round"/>
<path d="M59.2727 26.4287C57.1123 27.5303 55.1407 25.1781 53.0631 26.4287C50.781 27.8025 52.3751 31.0447 50.2406 32.6383C47.5909 34.6166 44.9811 33.4403 41.7731 32.6383C38.9037 31.9209 37.1672 31.263 34.9991 29.2512C32.754 27.1681 32.0549 25.3694 31.0475 22.4772C30.0938 19.739 29.66 18.0267 29.9185 15.1387C30.1671 12.3613 30.704 10.7327 32.1765 8.36465C33.9071 5.58158 35.4759 4.22665 38.3861 2.71963C41.7654 0.969661 44.178 0.939655 47.9826 1.02612C51.354 1.10275 53.5559 0.988853 56.4501 2.71963C58.9956 4.24183 59.953 5.85318 61.5307 8.36465C63.0551 10.7914 64.1008 12.2839 64.3532 15.1387C64.6121 18.0685 64.1021 19.914 62.6597 22.4772C61.6629 24.2485 61.0833 25.5054 59.2727 26.4287Z" stroke="black" stroke-width="2" stroke-linecap="round"/>
<path d="M52.4988 26.4289L50.8053 24.1709L49.1118 21.3484" stroke="black" stroke-width="2" stroke-linecap="round"/>
<path d="M50.8052 24.1708C50.8052 24.1708 49.765 24.0677 49.1117 24.1708C48.4231 24.2796 47.4182 24.7353 47.4182 24.7353" stroke="black" stroke-width="2" stroke-linecap="round"/>
<path d="M24.6135 51.7875C20.6643 53.7477 17.134 53.4929 13.3342 51.2851C9.67446 49.1587 7.50163 46.4551 7.4313 42.2422C7.36553 38.303 9.18433 35.8134 12.3121 33.3751C15.4399 30.9369 20.2021 29.8508 23.6757 31.0899C28.2079 32.7066 30.7217 36.135 31.0242 40.9077C31.335 45.8114 29.0494 49.5857 24.6135 51.7875Z" stroke="black" stroke-width="2" stroke-linecap="round"/>
<path d="M12.9538 56.3407C11.4479 54.44 13.3653 52.0433 11.7296 50.253C9.93284 48.2866 7.06863 50.4885 5.0855 48.7101C2.62363 46.5024 3.26232 43.712 3.41612 40.4088C3.55369 37.4543 3.85638 35.6222 5.40116 33.1C7.00075 30.4883 8.62637 29.4483 11.2632 27.8905C13.7597 26.4156 15.3528 25.6528 18.2351 25.3369C21.007 25.033 22.7095 25.2383 25.3213 26.215C28.391 27.363 30.0286 28.6338 32.0798 31.1898C34.4617 34.1578 34.9667 36.5171 35.632 40.2641C36.2216 43.5844 36.7673 45.7207 35.6411 48.8993C34.6506 51.6949 33.2597 52.9512 31.1085 54.993C29.0299 56.966 27.7729 58.2855 25.0239 59.0957C22.2027 59.9272 20.2928 59.791 17.4955 58.8822C15.5625 58.2542 14.216 57.9338 12.9538 56.3407Z" stroke="black" stroke-width="2" stroke-linecap="round"/>
<path d="M11.6183 49.6996L13.4982 47.5942L15.9314 45.3774" stroke="black" stroke-width="2" stroke-linecap="round"/>
<path d="M13.4981 47.5942C13.4981 47.5942 13.3941 46.5541 13.1642 45.934C12.9218 45.2803 12.2769 44.385 12.2769 44.385" stroke="black" stroke-width="2" stroke-linecap="round"/>
<path d="M67.9322 52.4408C67.2149 56.7909 64.945 59.5068 60.9328 61.2999C57.0685 63.0269 53.6049 63.21 50.1452 60.805C46.9102 58.5563 45.9529 55.6254 45.8023 51.6624C45.6517 47.6994 47.5534 43.2004 50.589 41.1058C54.5495 38.373 58.8006 38.3367 62.8502 40.8805C67.011 43.494 68.7379 47.5544 67.9322 52.4408Z" stroke="black" stroke-width="2" stroke-linecap="round"/>
<path d="M64.8131 64.5629C62.3907 64.6741 61.5664 61.7175 59.1578 61.9986C56.512 62.3074 56.6249 65.9184 54.0229 66.4883C50.7927 67.1958 48.9016 65.0468 46.3111 62.9916C43.994 61.1533 42.6842 59.837 41.5403 57.1094C40.3559 54.2851 40.462 52.3582 40.7389 49.3082C41.0011 46.4205 41.3131 44.6819 42.7412 42.1584C44.1146 39.7315 45.2761 38.47 47.5951 36.9214C50.3205 35.1014 52.3088 34.5152 55.5816 34.3445C59.382 34.1463 61.5916 35.1153 65.021 36.7652C68.0598 38.2272 70.1122 39.0328 72.0334 41.8043C73.7231 44.2418 73.9296 46.1047 74.3293 49.0435C74.7155 51.8833 75.0516 53.6744 74.1025 56.3786C73.1285 59.1538 71.9018 60.624 69.5296 62.3628C67.8904 63.5643 66.8434 64.4697 64.8131 64.5629Z" stroke="black" stroke-width="2" stroke-linecap="round"/>
<path d="M58.6436 61.7658L58.0338 59.0099L57.657 55.74" stroke="black" stroke-width="2" stroke-linecap="round"/>
<path d="M58.0336 59.0098C58.0336 59.0098 57.1288 58.4863 56.4912 58.3104C55.8192 58.1251 54.7157 58.1252 54.7157 58.1252" stroke="black" stroke-width="2" stroke-linecap="round"/>
</svg>
