<svg width="64" height="68" viewBox="0 0 64 68" fill="none" xmlns="http://www.w3.org/2000/svg">
<g clip-path="url(#clip0_255_102)">
<path d="M38.0247 0.201263C35.674 0.772357 33.788 2.69814 33.2169 5.11533C32.7786 6.96142 33.2435 9.75048 34.3591 12.0083C35.1161 13.5489 36.0857 14.8903 37.0818 15.7403L37.7724 16.338L36.6966 17.427C35.7802 18.3434 35.1826 19.1138 34.4255 20.3755C34.306 20.5747 34.1466 20.5349 33.0044 19.9106C30.4279 18.5427 28.2099 17.9981 25.1552 18.0114C22.9505 18.0114 23.1763 18.1442 23.0036 16.8028C22.6716 14.2661 20.7458 10.9192 18.8201 9.49814C16.8279 8.0372 14.2779 7.78486 12.0865 8.82079C11.1435 9.27236 10.8115 9.56454 8.50052 11.8622C6.21615 14.12 5.93724 14.452 5.93724 14.8372C5.93724 15.3817 6.33568 15.7934 6.89349 15.7934C7.26537 15.7934 7.62396 15.488 9.77552 13.363C12.4052 10.7731 12.9365 10.388 14.2115 10.2286C16.3497 9.96298 17.9568 10.8661 19.4974 13.2302C20.374 14.5849 20.9318 16.1255 21.1443 17.8653L21.224 18.5294L20.6529 18.702C20.3341 18.795 19.524 19.1138 18.8466 19.4059C18.1693 19.6981 17.5982 19.9239 17.5849 19.8974C17.0669 19.1802 15.5794 17.3606 14.9419 16.67C14.2115 15.8864 14.0255 15.7536 13.6536 15.7536C13.149 15.7536 12.5779 16.2716 12.5779 16.7364C12.5779 16.8825 13.0161 17.4802 13.5474 18.0911C14.7294 19.4192 15.8982 20.9067 15.8982 21.0528C15.8849 21.1192 15.5529 21.438 15.1411 21.77C14.7294 22.102 14.0388 22.7794 13.6005 23.2974C13.1622 23.802 12.7904 24.2536 12.7638 24.2802C12.6841 24.3599 10.8779 22.9388 9.74896 21.9161C8.63334 20.8934 8.32787 20.7872 7.74349 21.252C7.49115 21.4513 7.39818 21.6505 7.39818 21.9559C7.39818 22.3278 7.54427 22.5403 8.36771 23.3106C8.88568 23.8153 9.84193 24.6255 10.4794 25.1302L11.6216 26.02L11.1833 26.9231C10.931 27.4145 10.6122 28.2114 10.4529 28.6895L10.1607 29.5528L9.28412 29.4466C5.9638 29.0481 2.67005 26.8434 2.00599 24.5724C1.70052 23.5497 1.80677 22.1684 2.25834 21.2786C2.45755 20.8934 3.06849 20.1099 3.61302 19.5255C4.71537 18.3434 4.8349 17.9981 4.27709 17.4536C3.69271 16.8559 3.3474 16.9888 2.08568 18.2903C1.46146 18.9278 0.797398 19.7513 0.59818 20.1231C-0.411195 21.9825 -0.424477 24.3599 0.558336 26.2856C1.27552 27.6934 3.52005 29.6059 5.45912 30.4692C6.41537 30.8942 7.90287 31.3059 8.92552 31.4388L9.69584 31.5317L9.66927 33.4575C9.61615 37.1231 10.4396 39.8724 12.4849 42.8872C13.4013 44.2419 23.3888 54.2559 24.7966 55.2388C27.7451 57.2841 30.9857 58.2536 34.5318 58.1341C36.4443 58.0677 36.2451 57.9481 36.4177 59.2895C36.5372 60.1528 37.0818 61.8927 37.5068 62.7427C38.0779 63.8716 39.1404 65.2927 40.0169 66.1161C42.0357 68.002 44.7451 68.4802 47.2419 67.3911C48.0388 67.0458 48.5169 66.5942 53.2451 61.8927C58.6904 56.4872 58.9029 56.2216 59.3943 54.5216C59.8857 52.8216 59.4607 50.5505 58.3583 49.0231C57.9599 48.4653 57.9201 48.3458 58.0263 47.9341C58.2521 47.0177 58.1724 44.4942 57.8802 43.352C57.3224 41.227 56.0872 39.102 54.4669 37.495L53.524 36.5388L54.5732 35.5028C56.8443 33.2583 58.1193 30.4692 58.3451 27.295C58.4513 25.8075 58.2122 23.8286 57.8802 23.3638C57.5482 22.8989 56.8044 22.8458 56.406 23.2575C56.1404 23.5364 56.1271 23.6427 56.2333 24.4263C56.406 25.8341 56.3396 27.9856 56.074 29.0083C55.2372 32.3552 52.8068 35.1442 49.6193 36.4458L48.8357 36.7513L48.331 35.6622C47.2818 33.4442 46.7107 32.7669 41.1458 27.1755L35.8865 21.8895L36.2716 21.1856C37.5068 18.9145 40.0701 16.8692 42.5935 16.152C46.724 14.97 51.306 16.3911 53.9357 19.6583C54.2943 20.0966 54.7326 20.5216 54.9052 20.588C55.5161 20.8138 56.1802 20.3224 56.1802 19.645C56.1802 19.1934 55.0247 17.6927 54.0818 16.9224L53.4841 16.4177L54.3208 15.6075C56.4857 13.5224 57.774 10.9458 58.1326 7.91767C58.3052 6.48329 58.2255 5.46064 57.8536 4.38486C57.1232 2.27314 55.131 0.533294 52.9662 0.121575C52.5412 0.0418879 49.5927 -0.0112371 45.5286 0.0020441C40.2029 0.0020441 38.649 0.0551691 38.0247 0.201263ZM53.6568 2.43251C54.5865 2.91064 55.3833 3.74736 55.8482 4.74345C56.1669 5.40751 56.2068 5.65986 56.1935 6.7622C56.1536 9.68407 55.038 12.1544 52.8201 14.2395L51.7576 15.2356L50.6552 14.7708C50.0576 14.5052 49.5529 14.2794 49.5263 14.2661C49.4997 14.2395 49.606 13.6286 49.7521 12.9114C50.0974 11.2247 50.2966 9.33876 50.2966 7.8247C50.2966 6.80204 50.2568 6.58954 50.031 6.36376C49.699 6.03173 49.088 6.01845 48.7029 6.3372C48.424 6.56298 48.3974 6.74892 48.2911 8.50204C48.1716 10.3216 47.9193 12.2341 47.6404 13.2833L47.5076 13.7747L45.6482 13.7614H43.8021L43.6693 13.3497C43.4435 12.6724 43.1513 10.7599 43.0583 9.48486C42.8458 6.31064 42.7794 6.09814 41.8896 6.09814C41.106 6.09814 40.9333 6.44345 40.9732 7.94423C41.013 9.63095 41.2255 11.4638 41.5443 12.9778C41.6904 13.6684 41.7966 14.2395 41.7701 14.2661C41.7435 14.2794 41.2388 14.5052 40.6411 14.7575L39.5521 15.2224L38.8349 14.6114C36.6966 12.7786 35.4615 10.4677 35.1294 7.69189C34.9568 6.23095 35.0763 5.36767 35.5677 4.4247C36.1388 3.33564 37.3474 2.39267 38.5294 2.10048C38.7552 2.04736 42.0755 2.00751 45.9138 2.02079L52.8865 2.04736L53.6568 2.43251ZM28.2232 20.2559C29.9763 20.6145 29.9497 20.5747 29.0732 21.4645C27.7583 22.8059 27.1872 24.2802 27.1872 26.2989C27.1872 27.0559 27.1341 27.3349 27.0013 27.388C26.8951 27.4278 26.2841 27.4677 25.6333 27.4677C23.6279 27.4809 22.2333 28.0653 20.8654 29.4599C19.6568 30.695 19.0857 32.1294 19.0857 33.9356C19.0857 35.3302 19.099 35.3169 17.8904 35.3169C15.7919 35.3169 14.2911 35.8747 12.9763 37.1231L12.1927 37.8669L12.0599 37.3489C11.5021 35.2239 11.5154 32.0763 12.0997 30.0708C13.2419 26.1661 15.8185 23.1247 19.4177 21.3716C22.1802 20.0169 25.1951 19.645 28.2232 20.2559ZM33.031 22.2614C34.0005 22.8989 34.8904 23.6294 34.8904 23.7755C34.8904 23.8419 34.4521 23.895 33.9076 23.895C33.124 23.895 32.8583 23.9481 32.4997 24.2005C31.7427 24.7052 31.5568 25.17 31.4505 26.9231C31.331 28.7825 31.0786 29.4466 30.149 30.3763C29.1396 31.3724 28.4888 31.6247 26.5232 31.7177C23.8935 31.8505 23.4951 32.2356 23.3357 34.7856C23.2161 36.6184 22.9771 37.2559 22.0872 38.2122C21.131 39.2349 20.2279 39.5802 18.2622 39.6599C16.9474 39.7263 16.6021 39.7927 16.2701 40.0184C15.5263 40.5231 15.3138 40.9349 15.2341 42.0505L15.1677 43.0864L14.6896 42.4888C13.7865 41.3731 13.2154 40.3638 13.2951 40.0317C13.4943 39.2216 14.9286 37.8536 15.8716 37.5614C16.1372 37.4817 17.0802 37.3755 17.9568 37.3224C18.8333 37.2692 19.6701 37.163 19.8161 37.0833C20.706 36.5786 21.0646 35.702 21.0779 34.0286C21.0779 32.727 21.463 31.7442 22.2997 30.8544C23.2826 29.8184 24.106 29.4997 25.9919 29.4333C27.4927 29.3802 27.9044 29.2872 28.4357 28.8224C28.9271 28.3841 29.0997 27.8395 29.1794 26.352C29.2857 24.6122 29.631 23.7091 30.5208 22.8325C31.0654 22.3145 31.8755 21.7833 32.1677 21.77C32.2474 21.77 32.6326 21.9958 33.031 22.2614ZM39.4724 28.2778C40.9201 29.7255 42.0888 30.9474 42.0622 30.9739C42.0224 31.0138 41.7568 31.1599 41.4646 31.3059C40.7076 31.6911 39.7779 32.5411 39.2333 33.3645C38.5693 34.3739 38.224 35.4895 38.131 37.0169L38.038 38.345L36.5638 38.3981C34.8904 38.4778 33.974 38.7434 32.938 39.4474C30.999 40.7888 29.9896 42.7942 29.9763 45.3044C29.9763 46.3403 30.0294 46.3138 28.3693 46.327C26.4036 46.3403 24.9693 46.9645 23.6279 48.3856C23.2693 48.7708 22.8443 49.3286 22.6849 49.6341C22.5255 49.9395 22.3529 50.1919 22.2997 50.1919C22.2466 50.1919 21.0247 49.0099 19.5771 47.5622L16.9341 44.9192L17.0802 44.1489C17.1599 43.7239 17.2263 43.0067 17.2263 42.5552V41.7317L18.6076 41.652C20.9052 41.5059 22.1802 40.9747 23.4818 39.6067C24.7169 38.3052 25.1951 37.163 25.3146 35.1309L25.3943 33.7895L26.9216 33.7099C29.1661 33.5903 30.481 33.0059 31.7826 31.5583C32.8716 30.3364 33.2966 29.2739 33.4161 27.3481L33.4958 25.9536L34.7576 25.8606C35.4482 25.8075 36.1388 25.7411 36.2849 25.7145C36.431 25.6747 36.6169 25.6481 36.6833 25.6349C36.763 25.6349 38.0115 26.8169 39.4724 28.2778ZM44.413 33.2583C44.7583 33.67 45.1568 34.1747 45.2896 34.3872L45.5419 34.7856H44.8513C44.0013 34.7856 43.3505 35.0778 42.899 35.6755C42.5802 36.0872 42.5271 36.2997 42.4474 37.7474C42.3544 39.1552 42.288 39.4474 41.9294 40.1778C41.0396 41.9841 39.5122 42.7544 36.7497 42.7544C35.913 42.7544 35.674 42.8075 35.2755 43.0731C34.6646 43.4981 34.3591 44.1356 34.3591 45.0388C34.3458 46.1677 34.1201 47.4958 33.8146 48.0802C33.4029 48.9036 32.5529 49.7536 31.7427 50.1388C31.1185 50.4442 30.7997 50.5106 29.3122 50.577C27.8646 50.6567 27.5326 50.7099 27.2271 50.9356C26.6161 51.3872 26.2708 52.0114 26.1779 52.8614C26.1247 53.2997 26.0318 53.6317 25.9786 53.6184C25.6068 53.4989 24.013 51.945 23.9997 51.7192C23.9997 50.9356 25.0622 49.5145 26.0716 48.9169C26.8685 48.4388 27.3732 48.3192 28.5818 48.3192C31.1318 48.3059 31.9685 47.6153 31.9685 45.5567C31.9685 43.6841 32.3935 42.595 33.4958 41.5724C34.4654 40.6825 35.0896 40.47 37.0419 40.377C38.4497 40.2974 38.7951 40.2442 39.1005 40.0184C39.8576 39.4606 39.9771 39.1552 40.0966 37.5216C40.2294 35.5294 40.5349 34.7325 41.4646 33.7895C42.0622 33.1919 43.1513 32.5677 43.6826 32.5411C43.7357 32.5278 44.0544 32.8599 44.413 33.2583ZM46.8833 37.3356C47.574 39.195 47.7068 39.952 47.7068 42.3559C47.6935 44.3614 47.6536 44.8395 47.388 45.8091C45.9669 51.095 41.6771 55.0395 36.3646 55.9692C34.0404 56.3809 31.2779 56.1153 29.0865 55.2786L28.1169 54.9067V53.9638C28.1169 52.5559 28.0904 52.5825 29.4318 52.5825C31.4107 52.5825 32.9115 52.0247 34.1732 50.8294C35.5677 49.5145 36.1255 48.2528 36.2849 46.0349C36.3513 45.2247 36.4443 44.7466 36.5372 44.7466C38.9013 44.72 40.2826 44.4013 41.4911 43.5911C43.4036 42.3294 44.4396 40.2442 44.4529 37.6677V36.7778H45.5685H46.6708L46.8833 37.3356ZM52.3818 38.252C53.7497 39.3145 55.0646 41.227 55.649 43.0067C56.0076 44.0559 56.406 46.6591 56.2466 46.8184C56.1935 46.8583 55.7552 46.6591 55.2505 46.3669C53.7896 45.5036 52.0365 44.8927 50.363 44.6802L49.699 44.6005L49.7521 42.8739C49.7919 41.3731 49.6193 39.3809 49.4201 38.8364C49.3669 38.7302 49.5794 38.5841 49.9911 38.4513C50.3365 38.3317 50.8411 38.1192 51.0935 37.9731C51.3458 37.827 51.5849 37.7208 51.6115 37.7075C51.638 37.7075 51.9833 37.9599 52.3818 38.252ZM51.5849 46.9513C53.3513 47.4028 55.6224 48.7974 56.6318 50.0856C57.3357 50.9622 57.6411 51.945 57.5747 53.1138C57.4685 54.8934 57.4685 54.8934 52.063 60.3122C46.4716 65.9169 46.4716 65.9169 44.5857 65.9302C43.6294 65.9302 43.3372 65.877 42.713 65.5849C41.7833 65.1466 41.013 64.4559 40.2693 63.42C39.1404 61.813 38.3966 59.8872 38.3169 58.32L38.2771 57.6294L39.1404 57.3106C39.6185 57.1513 40.4021 56.8192 40.8935 56.5934L41.7966 56.1817L42.5138 57.138C42.9122 57.6692 43.7224 58.6122 44.3201 59.263C45.1833 60.1794 45.4888 60.4184 45.781 60.4184C46.2326 60.4184 46.6708 60.0599 46.7771 59.6216C46.8701 59.2099 46.6841 58.9309 45.3294 57.4169C44.7583 56.7661 44.1208 55.9825 43.9083 55.677L43.5232 55.1325L45.1302 53.5255C46.0068 52.6356 46.7638 51.9184 46.8036 51.9184C46.9232 51.9184 48.5966 53.2599 49.6458 54.2028C50.4427 54.92 50.7349 55.1059 51.0669 55.1059C51.9701 55.1059 52.3154 54.1497 51.6779 53.3927C51.306 52.9411 49.2076 51.1614 48.3443 50.5505L47.7865 50.152L48.1583 49.4083C48.3708 48.9966 48.7029 48.1997 48.9154 47.6153L49.274 46.5794L50.0443 46.6591C50.4693 46.7122 51.1599 46.845 51.5849 46.9513Z" fill="black"/>
</g>
<defs>
<clipPath id="clip0_255_102">
<rect width="64" height="68" fill="white"/>
</clipPath>
</defs>
</svg>
