<svg width="49" height="69" viewBox="0 0 49 69" fill="none" xmlns="http://www.w3.org/2000/svg">
<path d="M8.01926 45.6577C8.01926 45.6577 6.93003 60.9067 8.01926 61.9959C9.10848 63.0851 22.1791 63.0851 23.2682 61.9959C24.3574 60.9067 23.2682 45.6577 23.2682 45.6577C23.2682 45.6577 22.9115 41.8092 21.1503 40.2116C19.4537 38.6726 17.3898 38.0332 15.0991 38.0332C12.8085 38.0332 11.1864 38.5098 9.65308 40.2116C8.16675 41.8613 8.01926 45.6577 8.01926 45.6577Z" stroke="black" stroke-width="2" stroke-linecap="round"/>
<path d="M33.2687 52C33.2687 52 32.6642 60 33.2687 60.5714C33.8731 61.1429 41.1269 61.1429 41.7313 60.5714C42.3358 60 41.7313 52 41.7313 52C41.7313 52 41.5334 49.981 40.556 49.1429C39.6144 48.3355 38.469 48 37.1978 48C35.9265 48 35.0263 48.2501 34.1754 49.1429C33.3505 50.0083 33.2687 52 33.2687 52Z" stroke="black" stroke-width="2" stroke-linecap="round"/>
<path d="M12.9814 58.7283H18.9721" stroke="black" stroke-width="2" stroke-linecap="round"/>
<path d="M36 56H39" stroke="black" stroke-width="2" stroke-linecap="round"/>
<path d="M21.1924 1.42163C20.5221 0.859535 9.79743 0.859381 9.12722 1.42163C8.457 1.98387 8.45692 8.73025 9.12722 9.29217C9.79751 9.85409 20.5221 9.85435 21.1924 9.29217C21.8626 8.72999 21.8626 1.98372 21.1924 1.42163Z" stroke="black" stroke-width="2" stroke-linecap="round"/>
<path d="M43.5 28.2903C42.8333 27.9033 32.1666 27.9032 31.5 28.2903C30.8334 28.6775 30.8333 33.3228 31.5 33.7097C32.1667 34.0967 42.8333 34.0968 43.5 33.7097C44.1667 33.3226 44.1667 28.6774 43.5 28.2903Z" stroke="black" stroke-width="2" stroke-linecap="round"/>
<path d="M20.1292 9.71362C20.1292 9.71362 19.8514 13.3813 20.1292 15.7043C20.3619 17.6513 21.2184 20.6058 21.2184 20.6058C21.2184 20.6058 22.3431 23.3788 23.3968 24.9626C24.3169 26.3456 25.0306 26.5964 26.1198 28.2302C27.2091 29.8641 29.9321 61.9959 29.9321 61.9959C29.9321 61.9959 30.2836 64.6003 29.3875 65.8081C28.5374 66.9539 26.1198 67.4419 26.1198 67.4419H4.88017C4.88017 67.4419 2.46264 66.9539 1.61253 65.8081C0.716446 64.6003 1.06793 61.9959 1.06793 61.9959L3.17843 36.944" stroke="black" stroke-width="2" stroke-linecap="round"/>
<path d="M41.6919 35C41.6919 35 41.5387 37.0331 41.6919 38.3208C41.8203 39.4 42.2928 41.0377 42.2928 41.0377C42.2928 41.0377 42.9134 42.5749 43.4947 43.4528C44.0024 44.2195 44.3961 44.3585 44.9971 45.2642C45.5981 46.1698 47.1004 63.9811 47.1004 63.9811C47.1004 63.9811 47.2943 65.4248 46.7999 66.0943C46.3309 66.7295 44.9971 67 44.9971 67H29" stroke="black" stroke-width="2" stroke-linecap="round"/>
<path d="M10.6552 9.71362C10.6552 9.71362 10.9878 13.6231 10.6552 16.0969C10.3996 17.9975 10.2014 19.0807 9.5049 20.8844C8.82924 22.6342 8.40973 23.6535 7.20439 25.1399C6.25148 26.3151 5.479 26.2038 4.32874 27.7996C3.17849 29.3955 3.17849 32.5871 3.17849 32.5871" stroke="black" stroke-width="2" stroke-linecap="round"/>
<path d="M33.1035 35C33.1035 35 33.2781 37.594 33.1036 39C32.9696 40.0802 32.8654 40.9749 32.5 42C32.1455 42.9945 31.6325 43.6552 31.0001 44.5" stroke="black" stroke-width="2" stroke-linecap="round"/>
<path d="M13.1078 42.3901C13.1078 42.3901 14.1035 44.3817 14.7416 45.6578M14.7416 45.6578C15.5923 46.2958 16.3147 46.4173 16.92 47.2916C18.4513 49.5035 17.2143 54.8866 14.7416 53.8269C12.887 53.0321 12.8224 50.9228 13.1078 48.9254C13.3095 47.513 14.1035 46.9339 14.7416 45.6578Z" stroke="black" stroke-width="2" stroke-linecap="round"/>
</svg>
