<svg width="67" height="79" viewBox="0 0 67 79" fill="none" xmlns="http://www.w3.org/2000/svg">
<path d="M25.1217 7.94429C23.9833 8.36089 23.0149 9.34839 22.4129 10.7371C22.0858 11.4931 22.0465 11.74 22.0465 13.1287C22.0465 14.7642 22.2559 15.5357 22.9364 16.3998C23.4729 17.1095 24.5983 16.6775 24.5983 15.7671C24.5983 15.5511 24.4543 15.0574 24.2711 14.6562C23.5383 13.0361 24.1141 10.8759 25.4227 10.2896C26.2995 9.88843 27.2155 10.1662 28.0922 11.0611C29.0737 12.064 30.3954 11.9869 31.6516 10.8451C32.319 10.2279 32.4106 10.197 33.235 10.197C33.9809 10.197 34.1772 10.2587 34.5698 10.6136C35.4858 11.4314 35.8653 13.1904 35.3811 14.3322C35.2633 14.6099 34.3081 15.8443 33.2612 17.0941L31.3376 19.3777H25.6975C19.5079 19.3777 19.2592 19.4085 18.0291 20.3343C16.8122 21.2447 16.0532 22.6642 15.8307 24.4232C15.7653 24.9941 15.6999 28.8207 15.6999 32.9095V40.3312L13.5799 40.3929C11.5516 40.4392 11.4077 40.4546 10.701 40.8712C9.28774 41.689 8.31938 43.1548 7.99224 44.9601C7.90063 45.5001 7.84829 48.3701 7.84829 53.4773V61.1921H4.74692C1.92036 61.1921 1.6063 61.223 1.10903 61.5007C0.755712 61.7013 0.467821 62.0253 0.271532 62.4419C-0.238819 63.4912 -0.0948738 64.0466 1.26606 66.4537C2.56157 68.7373 3.08501 69.3699 4.18423 69.9716L4.90395 70.3728H33.4967H62.0895L62.8092 69.9716C63.9084 69.3699 64.4319 68.7373 65.7274 66.4537C67.0883 64.0466 67.2323 63.4912 66.7219 62.4419C66.5256 62.0253 66.2377 61.7013 65.8844 61.5007C65.3872 61.223 65.0731 61.1921 62.2465 61.1921H59.1452V53.4773C59.1452 48.3701 59.0928 45.5001 59.0012 44.9601C58.6741 43.1548 57.6403 41.5964 56.2663 40.8404L55.5465 40.4392L36.6374 40.3621L17.7282 40.2849L17.6889 36.6126L17.6627 32.9404L18.0684 32.6781C18.304 32.5392 18.8274 32.0763 19.2592 31.6751C20.2276 30.7339 20.7379 30.4871 21.6801 30.4871C22.5961 30.4871 23.2635 30.8265 24.1403 31.7214C24.5067 32.0917 25.1217 32.5701 25.5143 32.7861C26.1424 33.141 26.4042 33.1873 27.6081 33.1873C28.8381 33.1873 29.0606 33.141 29.7018 32.7707C30.0944 32.5392 30.7356 32.03 31.1282 31.6443C32.018 30.7494 32.5545 30.4871 33.4967 30.4871C34.4389 30.4871 34.9754 30.7494 35.8653 31.6443C36.2579 32.03 36.8991 32.5392 37.2917 32.7707C37.9329 33.141 38.1553 33.1873 39.3854 33.1873C40.5893 33.1873 40.851 33.141 41.4792 32.7861C41.8717 32.5701 42.4868 32.0917 42.8532 31.7214C43.7299 30.8265 44.3973 30.4871 45.3133 30.4871C46.2555 30.4871 46.7659 30.7339 47.7342 31.6751C48.1661 32.0763 48.6895 32.5392 48.9251 32.6781L49.3307 32.9404V34.8537C49.3307 36.5046 49.3569 36.7978 49.5663 37.0138C49.9196 37.3841 50.6786 37.3533 50.9795 36.9521C51.2151 36.6435 51.2282 36.2886 51.2674 31.166C51.2936 28.1263 51.2543 25.2101 51.1758 24.5929C51.0057 23.0808 50.4168 21.7384 49.5532 20.8435C48.5063 19.7634 47.7604 19.4857 45.6928 19.4085C44.1356 19.3468 43.9524 19.316 44.0309 19.1C44.4497 17.7884 44.4104 16.4152 43.9262 15.15C43.4682 13.9927 43.0102 13.4373 42.0549 12.8818C41.2959 12.4343 41.1258 12.4035 40.3407 12.4652C39.4116 12.5423 38.6788 12.8972 37.9852 13.5761L37.5926 13.9773L37.5272 12.7738C37.3047 8.49976 33.4706 6.35503 30.5917 8.90093C30.2122 9.22495 29.8327 9.50268 29.7542 9.50268C29.6756 9.50268 29.3485 9.25581 29.0344 8.96265C27.9745 7.97515 26.2864 7.52768 25.1217 7.94429ZM41.4006 15.0419C42.526 15.9214 42.67 17.8193 41.7147 19.0228C41.4399 19.3777 41.4006 19.3777 37.8282 19.3777H34.2165L35.2633 18.1433C36.1924 17.0478 36.3495 16.9089 36.6766 17.0015C37.3047 17.1558 37.8151 16.8935 38.7049 15.9523C39.1891 15.4431 39.6995 14.9648 39.8434 14.8876C40.3014 14.6716 41.0081 14.7333 41.4006 15.0419ZM47.6426 22.1242C48.5063 22.6488 49.0167 23.482 49.1999 24.6083C49.3569 25.5804 49.3831 30.0242 49.226 30.0242C49.1737 30.0242 48.912 29.8082 48.6502 29.5613C48.3885 29.299 47.8258 28.8978 47.4071 28.6664C46.7266 28.296 46.4911 28.2498 45.2741 28.2498C44.044 28.2498 43.8215 28.296 43.1803 28.6664C42.7877 28.8978 42.1204 29.4224 41.7016 29.839C40.1444 31.3974 38.561 31.3511 36.9645 29.7156C36.5981 29.3453 35.9831 28.8669 35.5905 28.6509C34.9624 28.296 34.7006 28.2498 33.4967 28.2498C32.2928 28.2498 32.0311 28.296 31.403 28.6509C31.0104 28.8669 30.3954 29.3453 30.029 29.7156C29.1915 30.5796 28.4848 30.95 27.6866 30.95C26.7313 30.95 26.1293 30.6722 25.2918 29.839C24.8731 29.4224 24.2057 28.8978 23.8131 28.6664C23.1719 28.296 22.9495 28.2498 21.7194 28.2498C20.4893 28.2498 20.2668 28.296 19.5733 28.6664C19.1545 28.9132 18.6049 29.299 18.3694 29.5613C18.1208 29.8082 17.859 30.0242 17.7936 30.0242C17.6235 30.0242 17.6235 25.673 17.7936 24.6083C17.9768 23.482 18.4872 22.6488 19.3508 22.1242L20.0444 21.6921H33.4967H46.9491L47.6426 22.1242ZM55.3895 42.9234C56.4102 43.5251 57.1823 44.9138 57.1823 46.1482C57.1823 46.3642 56.4756 47.29 55.0493 48.9564C53.1387 51.1937 52.8508 51.456 52.2227 51.6875C51.8301 51.8263 51.3852 51.9343 51.2282 51.9343C50.5739 51.9343 49.6186 51.4406 48.9512 50.7771C46.6874 48.4935 43.9262 48.4626 41.7932 50.6845C40.9295 51.5794 40.3668 51.8417 39.3854 51.8417C38.4432 51.8417 37.9198 51.5949 37.1477 50.7771C35.054 48.5707 32.3059 48.4626 30.1336 50.5302C28.9428 51.6566 28.5895 51.8417 27.6081 51.8417C26.6004 51.8417 26.1163 51.6103 25.0694 50.5611C22.9625 48.4626 20.2668 48.5398 18.0422 50.7771C17.3749 51.4406 16.4196 51.9343 15.7653 51.9343C15.6083 51.9343 15.1633 51.8263 14.7708 51.6875C14.1426 51.456 13.8547 51.1937 11.9442 48.9564C10.5178 47.29 9.81118 46.3642 9.81118 46.1482C9.81118 45.3767 10.2038 44.2812 10.6879 43.7257C11.6956 42.5994 9.58872 42.6919 33.4706 42.6765C52.9817 42.6765 55.01 42.6919 55.3895 42.9234ZM11.4338 51.5949C12.3499 52.6441 13.1219 53.3847 13.5276 53.6162C15.5036 54.6962 17.5711 54.2951 19.377 52.4744C20.5547 51.2863 21.9549 51.024 23.1327 51.78C23.3944 51.9498 23.9178 52.3972 24.2973 52.7675C25.2657 53.7396 26.234 54.1562 27.6081 54.1562C28.9952 54.1562 29.8458 53.7859 30.945 52.7367C32.1227 51.6103 32.5153 51.4097 33.4967 51.4097C34.4782 51.4097 34.8708 51.6103 36.0485 52.7367C38.1684 54.758 40.8903 54.6962 42.9186 52.5978C43.2458 52.2583 43.7038 51.8572 43.9262 51.7183C45.0778 51.024 46.4649 51.3171 47.6295 52.4898C49.0036 53.8785 50.5739 54.4494 52.1049 54.1099C53.3612 53.8476 54.0155 53.3693 55.5596 51.5949C56.3579 50.6845 57.0514 49.9285 57.0907 49.9285C57.143 49.9285 57.1823 52.4589 57.1823 55.5603V61.1921H40.2491C24.3235 61.1921 23.3028 61.2076 23.0411 61.4544C22.8971 61.6087 22.727 61.9482 22.6877 62.2259C22.6223 62.6271 22.6747 62.7968 22.9364 63.1054L23.2766 63.5066H44.1618H65.0338L63.987 65.3582C63.2672 66.6234 62.77 67.3486 62.3905 67.6263L61.8409 68.0583H33.4967H5.15259L4.60298 67.6263C4.22349 67.3486 3.72622 66.6234 3.00649 65.3582L1.95962 63.5066H10.7272H19.5079L19.8219 63.1208C20.2407 62.6425 20.2407 62.0562 19.8219 61.5779L19.5079 61.1921H14.653H9.81118V55.5603C9.81118 52.4589 9.85044 49.9285 9.90278 49.9285C9.94204 49.9285 10.6356 50.6845 11.4338 51.5949Z" fill="black"/>
</svg>
