<svg width="32" height="16" viewBox="0 0 32 16" fill="none" xmlns="http://www.w3.org/2000/svg">
<path d="M31 9L32 9L32 7L31 7L31 9ZM0.292891 7.29294C-0.097632 7.68347 -0.0976309 8.31663 0.292894 8.70716L6.65686 15.0711C7.04739 15.4616 7.68055 15.4616 8.07108 15.0711C8.4616 14.6806 8.4616 14.0474 8.07108 13.6569L2.41421 8.00005L8.07106 2.34318C8.46158 1.95266 8.46158 1.31949 8.07106 0.92897C7.68053 0.538446 7.04737 0.538447 6.65684 0.928972L0.292891 7.29294ZM31 7L0.999998 7.00005L1 9.00005L31 9L31 7Z" fill="#DEBDF0"/>
</svg>
