<svg width="40" height="38" viewBox="0 0 40 38" fill="none" xmlns="http://www.w3.org/2000/svg">
<path d="M31.5521 9.58663C31.2357 9.20687 30.8395 8.90144 30.3917 8.69204C29.944 8.48264 29.4556 8.3744 28.9613 8.375H10.7723L10.725 7.98013C10.6283 7.15935 10.2338 6.40257 9.6163 5.85329C8.99879 5.304 8.20121 5.00038 7.37475 5L7.125 5C6.82663 5 6.54048 5.11853 6.3295 5.3295C6.11853 5.54048 6 5.82663 6 6.125C6 6.42337 6.11853 6.70952 6.3295 6.9205C6.54048 7.13147 6.82663 7.25 7.125 7.25H7.37475C7.6503 7.25004 7.91625 7.3512 8.12217 7.53431C8.32808 7.71741 8.45964 7.96972 8.49187 8.24338L10.0399 21.4059C10.2006 22.7748 10.8583 24.037 11.8881 24.953C12.918 25.869 14.2483 26.375 15.6266 26.375H27.375C27.6734 26.375 27.9595 26.2565 28.1705 26.0455C28.3815 25.8345 28.5 25.5484 28.5 25.25C28.5 24.9516 28.3815 24.6655 28.1705 24.4545C27.9595 24.2435 27.6734 24.125 27.375 24.125H15.6266C14.9303 24.123 14.2516 23.9058 13.6837 23.5029C13.1157 23.1001 12.6862 22.5315 12.4541 21.875H25.8641C27.183 21.8751 28.4599 21.4118 29.4718 20.566C30.4837 19.7202 31.1663 18.5458 31.4002 17.2479L32.2834 12.3496C32.3715 11.8636 32.3517 11.3642 32.2253 10.8867C32.099 10.4092 31.8691 9.96539 31.5521 9.58663ZM30.075 11.9503L29.1908 16.8485C29.0503 17.6281 28.64 18.3335 28.0318 18.8411C27.4237 19.3487 26.6563 19.6262 25.8641 19.625H12.0964L11.0378 10.625H28.9613C29.1265 10.624 29.29 10.6594 29.44 10.7288C29.59 10.7981 29.7229 10.8997 29.8292 11.0262C29.9355 11.1527 30.0127 11.3011 30.0552 11.4608C30.0976 11.6205 30.1044 11.7876 30.075 11.9503Z" fill="#FFFCFC"/>
<path d="M13.875 32C15.1176 32 16.125 30.9926 16.125 29.75C16.125 28.5074 15.1176 27.5 13.875 27.5C12.6324 27.5 11.625 28.5074 11.625 29.75C11.625 30.9926 12.6324 32 13.875 32Z" fill="white"/>
<path d="M25.125 32C26.3676 32 27.375 30.9926 27.375 29.75C27.375 28.5074 26.3676 27.5 25.125 27.5C23.8824 27.5 22.875 28.5074 22.875 29.75C22.875 30.9926 23.8824 32 25.125 32Z" fill="white"/>
</svg>
