<svg width="25" height="25" viewBox="0 0 25 25" fill="none" xmlns="http://www.w3.org/2000/svg">
<g id="local" clip-path="url(#clip0_185_1210)">
<path id="Vector" d="M12.5 6.25C11.6759 6.25 10.8703 6.49437 10.1851 6.95221C9.49992 7.41005 8.96586 8.06079 8.6505 8.82215C8.33513 9.58351 8.25262 10.4213 8.41339 11.2295C8.57416 12.0378 8.971 12.7802 9.55372 13.3629C10.1364 13.9457 10.8789 14.3425 11.6871 14.5033C12.4954 14.664 13.3332 14.5815 14.0945 14.2662C14.8559 13.9508 15.5066 13.4167 15.9645 12.7315C16.4223 12.0463 16.6667 11.2408 16.6667 10.4167C16.6667 9.3116 16.2277 8.25179 15.4463 7.47039C14.6649 6.68899 13.6051 6.25 12.5 6.25ZM12.5 12.5C12.088 12.5 11.6852 12.3778 11.3426 12.1489C11 11.92 10.7329 11.5946 10.5752 11.2139C10.4176 10.8332 10.3763 10.4144 10.4567 10.0102C10.5371 9.6061 10.7355 9.23489 11.0269 8.94353C11.3182 8.65217 11.6894 8.45375 12.0936 8.37336C12.4977 8.29298 12.9166 8.33423 13.2973 8.49192C13.6779 8.6496 14.0033 8.91663 14.2322 9.25923C14.4611 9.60183 14.5833 10.0046 14.5833 10.4167C14.5833 10.9692 14.3638 11.4991 13.9731 11.8898C13.5824 12.2805 13.0525 12.5 12.5 12.5Z" fill="black"/>
<path id="Vector_2" d="M12.5 24.9999C11.6229 25.0044 10.7574 24.7987 9.97612 24.3999C9.19482 24.0012 8.52042 23.4211 8.00938 22.7082C4.03959 17.2322 2.02605 13.1155 2.02605 10.4718C2.02605 7.6939 3.12955 5.0298 5.0938 3.06555C7.05805 1.10131 9.72214 -0.00219727 12.5 -0.00219727C15.2779 -0.00219727 17.942 1.10131 19.9062 3.06555C21.8705 5.0298 22.974 7.6939 22.974 10.4718C22.974 13.1155 20.9604 17.2322 16.9906 22.7082C16.4796 23.4211 15.8052 24.0012 15.0239 24.3999C14.2426 24.7987 13.3771 25.0044 12.5 24.9999ZM12.5 2.27176C10.3254 2.27424 8.24065 3.13918 6.703 4.67684C5.16535 6.21449 4.3004 8.29928 4.29792 10.4738C4.29792 12.5676 6.2698 16.4395 9.84896 21.3759C10.1528 21.7944 10.5514 22.1351 11.0122 22.37C11.473 22.6048 11.9828 22.7273 12.5 22.7273C13.0172 22.7273 13.527 22.6048 13.9878 22.37C14.4486 22.1351 14.8472 21.7944 15.151 21.3759C18.7302 16.4395 20.7021 12.5676 20.7021 10.4738C20.6996 8.29928 19.8347 6.21449 18.297 4.67684C16.7594 3.13918 14.6746 2.27424 12.5 2.27176Z" fill="black"/>
</g>
<defs>
<clipPath id="clip0_185_1210">
<rect width="25" height="25" fill="white"/>
</clipPath>
</defs>
</svg>
