<svg width="24" height="24" viewBox="0 0 24 24" fill="none" xmlns="http://www.w3.org/2000/svg">
<path d="M23.7454 18.2015C22.852 16.5123 19.7496 14.6808 19.613 14.6007C19.2143 14.3737 18.7984 14.2536 18.409 14.2536C17.8302 14.2536 17.3564 14.5188 17.0694 15.0012C16.6156 15.544 16.0528 16.1786 15.9162 16.2769C14.8591 16.9942 14.0315 16.9128 13.1159 15.997L8.00557 10.8855C7.09572 9.97556 7.01207 9.13767 7.72438 8.08618C7.82405 7.94868 8.4585 7.38533 9.00129 6.93101C9.34744 6.72498 9.58502 6.41884 9.68913 6.04327C9.8275 5.54356 9.72562 4.95574 9.39905 4.38305C9.32208 4.25134 7.48991 1.14805 5.8019 0.254974C5.4869 0.0881061 5.13186 0 4.77592 0C4.18952 0 3.63783 0.22872 3.22317 0.642996L2.09397 1.77191C0.308074 3.55762 -0.338389 5.58183 0.171485 7.78804C0.596825 9.6267 1.83636 11.5833 3.85628 13.603L10.3988 20.1465C12.9553 22.7033 15.3925 24 17.6429 24C17.6429 24 17.6429 24 17.6433 24C19.2984 24 20.8414 23.2965 22.2282 21.9095L23.357 20.7806C24.043 20.0949 24.1987 19.0581 23.7454 18.2015Z" fill="white"/>
</svg>
