<svg width="31" height="31" viewBox="0 0 31 31" fill="none" xmlns="http://www.w3.org/2000/svg">
<g id="&#208;&#186;&#208;&#190;&#209;&#128;&#208;&#183;&#208;&#184;&#208;&#189;&#208;&#176;" clip-path="url(#clip0_166_1679)">
<path id="Vector" d="M28.4737 5.10525C28.1211 4.68256 27.6796 4.3426 27.1806 4.10952C26.6817 3.87644 26.1374 3.75595 25.5866 3.75663H5.3179L5.26525 3.3171C5.1575 2.40351 4.7179 1.56117 4.02978 0.949772C3.34167 0.338376 2.45289 0.000427997 1.53194 0L1.25363 0C0.921147 0 0.602281 0.131929 0.36718 0.366763C0.132079 0.601598 0 0.920102 0 1.25221C0 1.58431 0.132079 1.90282 0.36718 2.13765C0.602281 2.37249 0.921147 2.50442 1.25363 2.50442H1.53194C1.83899 2.50446 2.13536 2.61706 2.36481 2.82087C2.59427 3.02468 2.74087 3.30552 2.77679 3.61012L4.50179 18.261C4.68087 19.7846 5.41378 21.1896 6.56139 22.2092C7.709 23.2288 9.19144 23.792 10.7273 23.792H23.819C24.1515 23.792 24.4703 23.66 24.7054 23.4252C24.9405 23.1904 25.0726 22.8719 25.0726 22.5398C25.0726 22.2076 24.9405 21.8891 24.7054 21.6543C24.4703 21.4195 24.1515 21.2875 23.819 21.2875H10.7273C9.95139 21.2854 9.19513 21.0435 8.56222 20.5952C7.9293 20.1468 7.45072 19.5139 7.19208 18.7831H22.1354C23.605 18.7832 25.0279 18.2675 26.1555 17.3261C27.2832 16.3847 28.0438 15.0775 28.3045 13.6328L29.2886 8.18068C29.3868 7.63973 29.3647 7.08383 29.2239 6.55235C29.0831 6.02088 28.827 5.52684 28.4737 5.10525ZM26.8277 7.73614L25.8423 13.1883C25.6858 14.056 25.2287 14.8412 24.5509 15.4062C23.8732 15.9712 23.0181 16.28 22.1354 16.2787H6.79343L5.61376 6.26104H25.5866C25.7708 6.25994 25.9529 6.29939 26.1201 6.37657C26.2872 6.45374 26.4353 6.56677 26.5538 6.70759C26.6723 6.84841 26.7583 7.01358 26.8056 7.19136C26.8529 7.36913 26.8605 7.55513 26.8277 7.73614Z" fill="#C575F0"/>
<path id="Vector_2" d="M8.77533 30.053C10.1601 30.053 11.2826 28.9318 11.2826 27.5486C11.2826 26.1655 10.1601 25.0442 8.77533 25.0442C7.39061 25.0442 6.26807 26.1655 6.26807 27.5486C6.26807 28.9318 7.39061 30.053 8.77533 30.053Z" fill="#C575F0"/>
<path id="Vector_3" d="M21.3117 30.053C22.6964 30.053 23.819 28.9318 23.819 27.5486C23.819 26.1655 22.6964 25.0442 21.3117 25.0442C19.927 25.0442 18.8044 26.1655 18.8044 27.5486C18.8044 28.9318 19.927 30.053 21.3117 30.053Z" fill="#C575F0"/>
</g>
<defs>
<clipPath id="clip0_166_1679">
<rect width="30.0871" height="30.053" fill="white"/>
</clipPath>
</defs>
</svg>
